<svg width="24" height="24" viewBox="0 0 24 24" fill="none" xmlns="http://www.w3.org/2000/svg">
<path d="M18.2582 18.3189L5.53032 5.59099C5.24041 5.30108 5.24041 4.82024 5.53032 4.53033C5.82024 4.24042 6.30107 4.24042 6.59098 4.53033L19.3189 17.2583C19.6088 17.5482 19.6088 18.029 19.3189 18.3189C19.029 18.6088 18.5482 18.6088 18.2582 18.3189Z" fill="#820000"/>
<path d="M19.3796 5.80241L6.65164 18.5303C6.36173 18.8202 5.8809 18.8202 5.59098 18.5303C5.30107 18.2404 5.30107 17.7596 5.59098 17.4697L18.3189 4.74175C18.6088 4.45183 19.0897 4.45183 19.3796 4.74175C19.6695 5.03166 19.6695 5.51249 19.3796 5.80241Z" fill="#820000"/>
</svg>
