<svg width="25" height="24" viewBox="0 0 25 24" fill="none" xmlns="http://www.w3.org/2000/svg">
<path d="M21.5 5.25H3.5C3.09 5.25 2.75 4.91 2.75 4.5C2.75 4.09 3.09 3.75 3.5 3.75H21.5C21.91 3.75 22.25 4.09 22.25 4.5C22.25 4.91 21.91 5.25 21.5 5.25Z" fill="#B91C1C"/>
<path d="M21.5 12.5H3.5C3.09 12.5 2.75 12.16 2.75 11.75C2.75 11.34 3.09 11 3.5 11H21.5C21.91 11 22.25 11.34 22.25 11.75C22.25 12.16 21.91 12.5 21.5 12.5Z" fill="#B91C1C"/>
<path d="M21.5 19.5H3.5C3.09 19.5 2.75 19.16 2.75 18.75C2.75 18.34 3.09 18 3.5 18H21.5C21.91 18 22.25 18.34 22.25 18.75C22.25 19.16 21.91 19.5 21.5 19.5Z" fill="#B91C1C"/>
</svg>