<svg width="437" height="190" viewBox="0 0 437 190" fill="none" xmlns="http://www.w3.org/2000/svg">
<path d="M162.743 160.108C162.776 159.815 162.903 159.591 163.127 159.437C163.35 159.273 163.731 159.176 164.27 159.143C164.56 159.126 164.788 159.187 164.954 159.327C165.129 159.466 165.224 159.668 165.24 159.933C165.243 159.975 165.241 160.012 165.235 160.046C165.228 160.079 165.226 160.117 165.229 160.158C165.17 160.703 165.129 161.266 165.106 161.85C165.083 162.433 165.089 163.024 165.125 163.62C165.172 164.391 165.282 165.116 165.456 165.796C165.638 166.467 165.918 167.049 166.297 167.542C166.684 168.026 167.189 168.399 167.812 168.661C168.442 168.914 169.23 169.012 170.175 168.955C170.705 168.923 171.167 168.8 171.562 168.585C171.957 168.37 172.276 168.088 172.522 167.741C172.775 167.385 172.954 166.975 173.059 166.511C173.172 166.047 173.213 165.549 173.181 165.019C173.149 164.489 173.06 163.97 172.913 163.463C172.774 162.956 172.595 162.46 172.374 161.974C172.161 161.479 171.916 160.995 171.638 160.521C171.368 160.047 171.082 159.569 170.778 159.088C170.649 158.872 170.579 158.672 170.568 158.49C170.548 158.167 170.702 157.883 171.028 157.639L171.517 157.272C171.732 157.11 171.939 157.022 172.138 157.01C172.444 156.992 172.712 157.163 172.942 157.523C173.29 158.06 173.627 158.605 173.951 159.159C174.275 159.705 174.563 160.27 174.814 160.854C175.074 161.437 175.285 162.044 175.448 162.675C175.618 163.296 175.724 163.943 175.764 164.614C175.82 165.551 175.714 166.414 175.446 167.203C175.186 167.992 174.786 168.682 174.248 169.271C173.709 169.853 173.047 170.317 172.261 170.663C171.484 171.018 170.606 171.225 169.629 171.283C168.568 171.347 167.612 171.218 166.761 170.895C165.919 170.579 165.196 170.116 164.594 169.503C163.991 168.882 163.518 168.137 163.174 167.268C162.83 166.391 162.627 165.43 162.564 164.386C162.52 163.656 162.518 162.925 162.557 162.191C162.604 161.447 162.666 160.753 162.743 160.108Z" fill="black"/>
<path d="M185.067 158.128C185.523 158.101 185.966 158.145 186.397 158.26C186.828 158.376 187.213 158.548 187.551 158.777C187.889 159.006 188.164 159.289 188.376 159.626C188.596 159.962 188.718 160.341 188.744 160.764C188.754 160.938 188.723 161.11 188.65 161.281C188.585 161.443 188.49 161.59 188.365 161.722C188.239 161.846 188.091 161.951 187.922 162.036C187.76 162.112 187.588 162.156 187.406 162.167C187.389 162.168 187.373 162.173 187.357 162.182C187.349 162.183 187.336 162.184 187.32 162.185C187.304 162.194 187.287 162.199 187.271 162.2L187.38 163.191C187.485 164.374 187.703 165.23 188.034 165.759C188.373 166.288 188.788 166.537 189.276 166.508C189.45 166.497 189.603 166.472 189.733 166.43C189.872 166.389 189.998 166.344 190.112 166.295C190.233 166.238 190.347 166.19 190.453 166.15C190.558 166.111 190.665 166.087 190.773 166.081C190.963 166.07 191.134 166.142 191.285 166.3C191.444 166.456 191.531 166.651 191.545 166.883C191.559 167.115 191.481 167.352 191.313 167.595C191.153 167.838 190.934 168.063 190.655 168.271C190.376 168.471 190.058 168.64 189.7 168.778C189.342 168.916 188.977 168.996 188.604 169.018C187.958 169.057 187.374 168.826 186.853 168.325C186.332 167.816 185.937 167.05 185.667 166.027C185.607 165.864 185.536 165.785 185.453 165.79C185.354 165.796 185.27 165.851 185.201 165.955C184.443 167.04 183.616 167.872 182.719 168.45C181.822 169.019 180.922 169.331 180.018 169.386C179.596 169.411 179.211 169.372 178.864 169.268C178.516 169.164 178.216 169.008 177.962 168.798C177.716 168.58 177.517 168.314 177.365 167.998C177.221 167.674 177.136 167.309 177.112 166.903C177.078 166.331 177.166 165.723 177.376 165.078C177.595 164.433 177.902 163.791 178.296 163.152C178.69 162.513 179.152 161.899 179.682 161.309C180.22 160.72 180.788 160.195 181.384 159.735C181.988 159.274 182.606 158.9 183.237 158.613C183.869 158.325 184.479 158.164 185.067 158.128ZM184.916 162.454C185.048 162.163 185.172 161.952 185.289 161.82C185.405 161.68 185.578 161.582 185.808 161.527C185.989 161.491 186.076 161.428 186.071 161.337C186.067 161.27 186.038 161.201 185.984 161.13C185.813 160.924 185.636 160.747 185.453 160.6C185.269 160.445 185.032 160.376 184.742 160.394C184.427 160.413 184.08 160.525 183.702 160.731C183.323 160.936 182.94 161.205 182.552 161.536C182.173 161.858 181.8 162.226 181.434 162.639C181.075 163.043 180.759 163.457 180.486 163.881C180.212 164.305 179.996 164.721 179.837 165.13C179.679 165.539 179.609 165.9 179.628 166.215C179.645 166.497 179.733 166.712 179.891 166.861C180.058 167.009 180.274 167.075 180.54 167.059C181.219 167.018 181.939 166.613 182.699 165.843C183.46 165.074 184.199 163.944 184.916 162.454Z" fill="black"/>
<path d="M194.406 164.053C194.473 165.164 194.694 166.011 195.07 166.596C195.446 167.18 195.958 167.453 196.604 167.414C197.01 167.39 197.376 167.247 197.701 166.986C198.035 166.725 198.313 166.372 198.535 165.926C198.758 165.48 198.918 164.959 199.015 164.362C199.12 163.757 199.152 163.107 199.11 162.41C199.084 161.988 199.046 161.624 198.994 161.32C198.942 161.007 198.888 160.731 198.832 160.494C198.784 160.247 198.738 160.029 198.693 159.841C198.648 159.652 198.621 159.471 198.61 159.297C198.594 159.032 198.695 158.834 198.912 158.705C199.128 158.567 199.481 158.483 199.969 158.454C200.591 158.417 201.08 158.529 201.437 158.79C201.802 159.051 202 159.45 202.033 159.989C202.121 161.456 202.055 162.782 201.836 163.968C201.624 165.153 201.274 166.172 200.785 167.025C200.303 167.869 199.695 168.534 198.959 169.019C198.223 169.504 197.382 169.775 196.438 169.832C195.766 169.872 195.136 169.769 194.548 169.521C193.968 169.282 193.456 168.926 193.011 168.454C192.575 167.973 192.22 167.395 191.947 166.721C191.673 166.039 191.511 165.284 191.461 164.455C191.442 164.14 191.43 163.804 191.425 163.447C191.42 163.09 191.422 162.707 191.431 162.299C191.439 161.883 191.454 161.433 191.474 160.949C191.503 160.465 191.534 159.939 191.566 159.371C191.577 159.13 191.677 158.932 191.868 158.78C192.066 158.618 192.322 158.528 192.637 158.509C192.919 158.492 193.186 158.505 193.438 158.548C193.69 158.591 193.906 158.657 194.086 158.746C194.275 158.834 194.422 158.942 194.53 159.068C194.646 159.194 194.708 159.332 194.717 159.481C194.726 159.63 194.707 159.869 194.66 160.196C194.621 160.514 194.577 160.883 194.527 161.302C194.485 161.712 194.446 162.159 194.408 162.644C194.379 163.119 194.378 163.589 194.406 164.053Z" fill="black"/>
<path d="M207.149 167.478C206.909 167.492 206.679 167.469 206.459 167.407C206.247 167.345 206.059 167.257 205.894 167.142C205.729 167.019 205.595 166.873 205.494 166.704C205.4 166.535 205.348 166.351 205.336 166.153C205.315 165.805 205.434 165.515 205.695 165.283C205.964 165.05 206.326 164.92 206.782 164.893C206.997 164.88 207.207 164.909 207.411 164.98C207.622 165.042 207.807 165.135 207.964 165.258C208.129 165.381 208.263 165.527 208.364 165.696C208.466 165.864 208.523 166.044 208.534 166.234C208.556 166.599 208.441 166.893 208.188 167.116C207.943 167.33 207.597 167.451 207.149 167.478Z" fill="black"/>
<path d="M215.154 166.996C214.914 167.011 214.684 166.987 214.464 166.925C214.252 166.863 214.064 166.775 213.899 166.66C213.734 166.537 213.6 166.391 213.499 166.223C213.405 166.054 213.353 165.87 213.341 165.671C213.32 165.323 213.439 165.033 213.7 164.801C213.969 164.568 214.331 164.438 214.787 164.411C215.002 164.398 215.212 164.427 215.416 164.498C215.627 164.56 215.812 164.653 215.969 164.776C216.134 164.9 216.268 165.045 216.369 165.214C216.471 165.382 216.528 165.562 216.539 165.753C216.561 166.117 216.446 166.411 216.193 166.634C215.948 166.849 215.602 166.969 215.154 166.996Z" fill="black"/>
<path d="M223.159 166.514C222.919 166.529 222.689 166.505 222.469 166.444C222.257 166.382 222.069 166.293 221.904 166.178C221.739 166.055 221.605 165.909 221.504 165.741C221.41 165.572 221.358 165.388 221.346 165.189C221.325 164.841 221.444 164.551 221.705 164.319C221.974 164.087 222.336 163.957 222.792 163.929C223.007 163.916 223.217 163.945 223.421 164.016C223.632 164.078 223.817 164.171 223.974 164.295C224.139 164.418 224.273 164.564 224.374 164.732C224.476 164.901 224.533 165.08 224.544 165.271C224.566 165.635 224.451 165.929 224.198 166.152C223.953 166.367 223.607 166.487 223.159 166.514Z" fill="black"/>
<path d="M230.212 161.2C230.242 161.697 230.39 162.154 230.657 162.57C230.931 162.978 231.276 163.331 231.693 163.63C232.11 163.921 232.581 164.143 233.106 164.294C233.63 164.437 234.161 164.492 234.7 164.46C234.866 164.45 235.035 164.427 235.207 164.392C235.379 164.348 235.534 164.285 235.67 164.202C235.806 164.119 235.917 164.017 236.001 163.895C236.085 163.765 236.121 163.609 236.11 163.427C236.089 163.079 235.944 162.742 235.675 162.418C235.414 162.092 235.075 161.776 234.657 161.468C234.239 161.153 233.763 160.844 233.229 160.544C232.695 160.235 232.153 159.931 231.602 159.631C231.052 159.332 230.51 159.032 229.976 158.731C229.442 158.422 228.966 158.114 228.548 157.807C228.13 157.491 227.787 157.171 227.518 156.846C227.256 156.512 227.115 156.171 227.094 155.823C227.074 155.492 227.139 155.18 227.287 154.889C227.444 154.588 227.656 154.313 227.924 154.064C228.192 153.815 228.507 153.588 228.869 153.384C229.231 153.179 229.611 153.002 230.009 152.853C230.408 152.705 230.808 152.589 231.211 152.507C231.621 152.415 232.013 152.359 232.386 152.336C232.659 152.32 232.958 152.31 233.282 152.307C233.614 152.295 233.923 152.314 234.209 152.364C234.502 152.404 234.748 152.481 234.946 152.594C235.144 152.707 235.25 152.879 235.264 153.111C235.269 153.186 235.262 153.282 235.244 153.399C235.226 153.508 235.166 153.695 235.066 153.959C234.964 154.206 234.839 154.397 234.689 154.53C234.546 154.655 234.355 154.725 234.115 154.74C233.775 154.76 233.412 154.744 233.027 154.693C232.649 154.632 232.269 154.614 231.888 154.637C231.681 154.649 231.47 154.674 231.256 154.712C231.05 154.741 230.862 154.79 230.691 154.858C230.52 154.918 230.384 155.006 230.283 155.12C230.181 155.226 230.135 155.358 230.145 155.515C230.154 155.672 230.277 155.844 230.512 156.029C230.756 156.214 231.072 156.416 231.459 156.633C231.855 156.851 232.302 157.09 232.8 157.351C233.298 157.604 233.805 157.881 234.322 158.183C234.847 158.475 235.361 158.794 235.864 159.138C236.367 159.473 236.817 159.837 237.215 160.229C237.62 160.612 237.949 161.025 238.2 161.467C238.46 161.909 238.604 162.374 238.633 162.863C238.669 163.46 238.564 163.994 238.318 164.467C238.072 164.939 237.743 165.341 237.33 165.674C236.918 166.006 236.455 166.263 235.942 166.444C235.43 166.632 234.925 166.742 234.427 166.772C233.922 166.802 233.404 166.771 232.875 166.678C232.354 166.593 231.847 166.453 231.353 166.258C230.859 166.072 230.392 165.838 229.951 165.557C229.517 165.267 229.136 164.94 228.806 164.578C228.476 164.207 228.207 163.803 227.997 163.366C227.796 162.929 227.681 162.466 227.652 161.977C227.639 161.77 227.639 161.562 227.652 161.354C227.672 161.136 227.715 160.947 227.78 160.785C227.844 160.614 227.94 160.476 228.066 160.368C228.193 160.252 228.359 160.188 228.566 160.176C228.633 160.172 228.708 160.176 228.792 160.187C228.875 160.191 229.022 160.219 229.233 160.273C229.478 160.333 229.697 160.441 229.889 160.595C230.089 160.741 230.197 160.943 230.212 161.2Z" fill="black"/>
<path d="M250.256 162.376C250.484 162.154 250.714 162.036 250.946 162.022C251.078 162.014 251.2 162.04 251.312 162.1C251.424 162.16 251.55 162.256 251.691 162.389C251.827 162.572 251.924 162.725 251.981 162.846C252.046 162.958 252.082 163.073 252.089 163.189C252.104 163.437 251.994 163.681 251.758 163.92C251.381 164.275 250.968 164.599 250.52 164.892C250.071 165.177 249.599 165.426 249.105 165.639C248.61 165.852 248.097 166.02 247.563 166.143C247.031 166.275 246.499 166.357 245.969 166.389C245.298 166.429 244.663 166.38 244.064 166.242C243.465 166.111 242.925 165.903 242.442 165.616C241.967 165.328 241.559 164.974 241.218 164.554C240.876 164.126 240.622 163.638 240.456 163.09C240.367 162.863 240.288 162.718 240.218 162.656C240.155 162.585 240.054 162.553 239.913 162.562C239.606 162.58 239.365 162.52 239.191 162.381C239.016 162.242 238.92 162.031 238.903 161.749C238.896 161.633 238.9 161.558 238.915 161.524L238.924 161.274C238.948 160.973 239.014 160.753 239.122 160.613C239.238 160.473 239.425 160.396 239.682 160.38L239.868 160.369C240.216 160.348 240.451 160.172 240.572 159.84C240.795 159.253 241.091 158.711 241.46 158.215C241.829 157.718 242.253 157.29 242.73 156.928C243.207 156.558 243.721 156.265 244.274 156.049C244.834 155.824 245.408 155.694 245.997 155.659C246.61 155.622 247.187 155.678 247.729 155.829C248.278 155.97 248.761 156.187 249.177 156.478C249.594 156.769 249.927 157.119 250.176 157.528C250.434 157.936 250.577 158.385 250.606 158.874C250.627 159.214 250.579 159.529 250.464 159.818C250.348 160.108 250.172 160.368 249.937 160.599C249.701 160.821 249.408 161.009 249.06 161.163C248.72 161.316 248.327 161.427 247.882 161.496L243.595 162.19C243.43 162.2 243.295 162.25 243.193 162.339C243.098 162.428 243.055 162.543 243.064 162.684C243.077 162.899 243.168 163.102 243.337 163.291C243.515 163.48 243.741 163.645 244.016 163.787C244.298 163.92 244.616 164.021 244.97 164.091C245.332 164.161 245.699 164.185 246.072 164.162C246.428 164.141 246.791 164.086 247.16 163.997C247.536 163.899 247.903 163.773 248.26 163.619C248.625 163.464 248.976 163.285 249.313 163.081C249.649 162.87 249.964 162.635 250.256 162.376ZM247.291 159.336C247.414 159.303 247.518 159.239 247.604 159.142C247.689 159.037 247.727 158.914 247.719 158.774C247.711 158.649 247.659 158.536 247.561 158.434C247.463 158.332 247.333 158.244 247.171 158.17C247.008 158.089 246.821 158.029 246.611 157.992C246.401 157.955 246.18 157.943 245.948 157.957C245.608 157.977 245.263 158.048 244.913 158.169C244.562 158.29 244.247 158.442 243.967 158.625C243.687 158.8 243.461 158.992 243.291 159.202C243.12 159.404 243.04 159.6 243.052 159.791C243.063 159.981 243.185 160.069 243.417 160.055C243.558 160.047 243.785 160.017 244.098 159.965C244.411 159.912 244.756 159.854 245.135 159.79C245.513 159.717 245.895 159.64 246.281 159.559C246.667 159.477 247.004 159.403 247.291 159.336Z" fill="black"/>
<path d="M252.6 154.899C252.593 154.775 252.639 154.652 252.74 154.529C252.84 154.398 252.975 154.282 253.143 154.181C253.311 154.071 253.501 153.98 253.713 153.909C253.933 153.829 254.155 153.783 254.379 153.769C254.503 153.762 254.608 153.789 254.695 153.85C254.79 153.911 254.877 154.035 254.955 154.221C255.032 154.4 255.106 154.657 255.176 154.994C255.254 155.322 255.334 155.754 255.416 156.289C255.459 156.453 255.496 156.58 255.526 156.669C255.564 156.75 255.608 156.789 255.658 156.786C255.733 156.782 255.799 156.649 255.859 156.387C256.358 154.602 257.18 153.676 258.323 153.607C258.854 153.575 259.344 153.712 259.795 154.017C260.254 154.322 260.693 154.841 261.111 155.572C261.537 156.295 261.957 157.259 262.371 158.465C262.784 159.663 263.214 161.147 263.662 162.916C263.684 163.006 263.701 163.089 263.714 163.163C263.727 163.237 263.735 163.307 263.739 163.373C263.751 163.564 263.715 163.732 263.632 163.879C263.557 164.016 263.452 164.135 263.317 164.234C263.181 164.326 263.027 164.397 262.856 164.449C262.685 164.51 262.512 164.545 262.338 164.555C261.99 164.576 261.735 164.554 261.573 164.489C261.42 164.423 261.316 164.288 261.262 164.084C260.946 162.839 260.642 161.734 260.351 160.77C260.069 159.806 259.796 158.999 259.532 158.349C259.276 157.691 259.03 157.194 258.794 156.859C258.557 156.524 258.331 156.363 258.116 156.376C257.9 156.389 257.706 156.538 257.531 156.823C257.365 157.099 257.212 157.528 257.073 158.111C256.933 158.693 256.807 159.428 256.694 160.317C256.589 161.205 256.499 162.262 256.423 163.489C256.402 163.823 256.252 164.098 255.974 164.315C255.696 164.531 255.333 164.653 254.886 164.68C254.587 164.698 254.356 164.649 254.191 164.534C254.026 164.419 253.929 164.255 253.899 164.04C253.721 162.321 253.552 160.909 253.394 159.804C253.244 158.69 253.112 157.8 252.997 157.133C252.881 156.458 252.789 155.957 252.719 155.628C252.649 155.3 252.61 155.057 252.6 154.899Z" fill="black"/>
<path d="M267.545 153.239C268.101 153.205 268.677 153.246 269.274 153.359C269.871 153.465 270.421 153.619 270.924 153.821C271.426 154.016 271.843 154.244 272.175 154.507C272.507 154.77 272.681 155.034 272.697 155.299C272.705 155.432 272.656 155.584 272.55 155.757C272.443 155.921 272.312 156.083 272.155 156.242C271.998 156.393 271.822 156.524 271.63 156.636C271.444 156.738 271.277 156.794 271.128 156.803C270.929 156.815 270.701 156.746 270.442 156.595C270.192 156.444 269.911 156.278 269.601 156.097C269.299 155.907 268.968 155.74 268.61 155.595C268.252 155.45 267.87 155.39 267.464 155.414C267.199 155.43 266.983 155.51 266.817 155.653C266.659 155.787 266.587 155.97 266.601 156.202C266.613 156.41 266.726 156.615 266.937 156.818C267.149 157.014 267.423 157.213 267.759 157.418C268.104 157.621 268.492 157.835 268.921 158.059C269.35 158.282 269.789 158.522 270.237 158.778C270.693 159.033 271.138 159.314 271.572 159.621C272.007 159.927 272.397 160.266 272.744 160.636C273.099 161.005 273.389 161.416 273.616 161.868C273.843 162.312 273.972 162.803 274.004 163.342C274.032 163.806 273.975 164.233 273.832 164.624C273.689 165.016 273.473 165.357 273.183 165.649C272.892 165.941 272.541 166.174 272.127 166.349C271.713 166.523 271.254 166.626 270.748 166.656C270.11 166.695 269.516 166.631 268.965 166.464C268.415 166.306 267.935 166.069 267.525 165.753C267.115 165.436 266.784 165.049 266.532 164.59C266.288 164.13 266.149 163.619 266.115 163.056C266.071 162.326 266.168 161.788 266.405 161.441C266.65 161.094 267.054 160.903 267.618 160.869C267.966 160.848 268.248 160.898 268.463 161.018C268.678 161.138 268.791 161.293 268.803 161.484C268.809 161.584 268.798 161.688 268.772 161.798C268.744 161.899 268.714 162.009 268.679 162.128C268.653 162.237 268.626 162.355 268.601 162.482C268.583 162.608 268.578 162.733 268.586 162.857C268.599 163.072 268.661 163.277 268.772 163.469C268.884 163.662 269.027 163.828 269.202 163.968C269.385 164.115 269.591 164.227 269.821 164.305C270.05 164.382 270.289 164.414 270.537 164.399C271.2 164.359 271.515 164.065 271.482 163.518C271.457 163.087 271.262 162.692 270.9 162.331C270.536 161.962 270.087 161.611 269.551 161.277C269.015 160.935 268.437 160.595 267.818 160.258C267.207 159.921 266.633 159.565 266.095 159.189C265.556 158.814 265.104 158.409 264.737 157.974C264.369 157.53 264.169 157.039 264.136 156.5C264.109 156.053 264.176 155.637 264.336 155.253C264.504 154.869 264.742 154.534 265.049 154.25C265.356 153.957 265.72 153.723 266.142 153.548C266.572 153.372 267.04 153.269 267.545 153.239Z" fill="black"/>
<path d="M281.624 152.317C282.08 152.289 282.523 152.333 282.955 152.449C283.386 152.564 283.77 152.736 284.108 152.965C284.447 153.195 284.721 153.477 284.933 153.814C285.153 154.15 285.275 154.529 285.301 154.952C285.311 155.126 285.28 155.298 285.207 155.469C285.142 155.631 285.047 155.778 284.922 155.91C284.796 156.034 284.649 156.139 284.479 156.224C284.317 156.3 284.145 156.344 283.963 156.355C283.947 156.356 283.93 156.361 283.914 156.37C283.906 156.371 283.893 156.372 283.877 156.373C283.861 156.382 283.844 156.387 283.828 156.388L283.937 157.379C284.042 158.562 284.26 159.418 284.591 159.947C284.931 160.476 285.345 160.725 285.834 160.696C286.008 160.685 286.16 160.66 286.291 160.619C286.43 160.577 286.556 160.532 286.669 160.483C286.791 160.426 286.904 160.378 287.01 160.338C287.116 160.299 287.222 160.276 287.33 160.269C287.521 160.258 287.691 160.33 287.842 160.488C288.001 160.644 288.088 160.839 288.102 161.071C288.116 161.303 288.039 161.54 287.87 161.783C287.71 162.026 287.491 162.251 287.212 162.459C286.933 162.659 286.615 162.828 286.257 162.966C285.9 163.104 285.534 163.184 285.161 163.207C284.515 163.245 283.931 163.014 283.411 162.513C282.889 162.004 282.494 161.238 282.224 160.215C282.165 160.052 282.093 159.973 282.011 159.978C281.911 159.984 281.827 160.039 281.758 160.143C281 161.228 280.173 162.06 279.276 162.638C278.379 163.207 277.479 163.519 276.576 163.574C276.153 163.599 275.768 163.56 275.421 163.456C275.074 163.352 274.773 163.196 274.519 162.986C274.273 162.768 274.074 162.502 273.922 162.186C273.778 161.862 273.694 161.497 273.669 161.091C273.635 160.52 273.723 159.911 273.934 159.267C274.153 158.621 274.459 157.979 274.853 157.34C275.247 156.701 275.709 156.087 276.239 155.497C276.778 154.908 277.345 154.383 277.941 153.923C278.545 153.462 279.163 153.088 279.795 152.801C280.426 152.513 281.036 152.352 281.624 152.317ZM281.473 156.642C281.605 156.351 281.73 156.14 281.846 156.008C281.963 155.868 282.136 155.77 282.365 155.715C282.546 155.679 282.634 155.616 282.628 155.525C282.624 155.458 282.595 155.389 282.541 155.318C282.37 155.112 282.194 154.935 282.01 154.788C281.826 154.633 281.589 154.564 281.299 154.582C280.984 154.601 280.637 154.713 280.259 154.919C279.88 155.124 279.497 155.393 279.11 155.724C278.73 156.046 278.357 156.414 277.991 156.827C277.633 157.231 277.317 157.645 277.043 158.069C276.769 158.493 276.553 158.909 276.394 159.318C276.236 159.727 276.166 160.089 276.185 160.403C276.202 160.685 276.29 160.9 276.449 161.049C276.616 161.197 276.832 161.263 277.097 161.247C277.776 161.206 278.496 160.801 279.257 160.031C280.017 159.262 280.756 158.132 281.473 156.642Z" fill="black"/>
<path d="M292.388 152.28C292.819 152.254 293.241 152.291 293.655 152.391C294.068 152.491 294.435 152.639 294.754 152.836C295.082 153.024 295.349 153.249 295.556 153.511C295.763 153.765 295.874 154.033 295.891 154.315C295.902 154.497 295.876 154.677 295.812 154.856C295.747 155.026 295.657 155.181 295.54 155.321C295.423 155.453 295.289 155.565 295.136 155.657C294.983 155.741 294.82 155.789 294.646 155.799C294.455 155.811 294.277 155.751 294.111 155.619C293.945 155.48 293.765 155.328 293.572 155.165C293.387 154.993 293.179 154.844 292.946 154.716C292.722 154.58 292.456 154.521 292.15 154.54C291.852 154.558 291.586 154.644 291.355 154.8C291.123 154.955 290.932 155.166 290.781 155.433C290.639 155.691 290.533 155.997 290.462 156.35C290.4 156.695 290.381 157.071 290.405 157.477C290.475 158.637 290.748 159.51 291.224 160.097C291.7 160.676 292.348 160.94 293.168 160.891C293.558 160.867 293.886 160.785 294.152 160.644C294.426 160.503 294.662 160.352 294.86 160.19C295.067 160.028 295.253 159.879 295.42 159.745C295.586 159.61 295.761 159.537 295.943 159.526C296.042 159.52 296.144 159.547 296.247 159.608C296.35 159.66 296.442 159.733 296.523 159.828C296.611 159.914 296.683 160.014 296.74 160.127C296.805 160.239 296.841 160.354 296.848 160.47C296.865 160.743 296.745 161.033 296.489 161.34C296.241 161.646 295.913 161.931 295.505 162.197C295.096 162.455 294.635 162.674 294.122 162.854C293.618 163.034 293.121 163.139 292.632 163.169C291.977 163.208 291.369 163.116 290.806 162.892C290.244 162.676 289.751 162.356 289.326 161.933C288.901 161.501 288.558 160.977 288.296 160.361C288.043 159.744 287.893 159.054 287.847 158.292C287.797 157.463 287.872 156.694 288.07 155.983C288.277 155.272 288.58 154.651 288.981 154.119C289.389 153.579 289.883 153.15 290.463 152.832C291.042 152.506 291.684 152.322 292.388 152.28Z" fill="black"/>
<path d="M298.37 149.487C298.13 149.502 297.9 149.482 297.681 149.429C297.469 149.367 297.281 149.278 297.116 149.163C296.959 149.04 296.829 148.894 296.728 148.725C296.626 148.557 296.569 148.369 296.556 148.162C296.535 147.814 296.655 147.524 296.916 147.292C297.184 147.059 297.551 146.929 298.015 146.901C298.23 146.888 298.44 146.917 298.644 146.988C298.847 147.051 299.028 147.144 299.185 147.267C299.35 147.391 299.484 147.541 299.586 147.717C299.688 147.886 299.744 148.065 299.756 148.256C299.777 148.612 299.662 148.902 299.409 149.125C299.164 149.34 298.818 149.46 298.37 149.487ZM296.895 153.381C296.878 153.091 296.988 152.847 297.226 152.65C297.471 152.444 297.801 152.328 298.215 152.303C298.961 152.259 299.374 152.491 299.455 153.002C299.51 153.357 299.567 153.756 299.627 154.202C299.695 154.647 299.761 155.121 299.825 155.625C299.896 156.119 299.961 156.635 300.018 157.173C300.083 157.701 300.144 158.225 300.2 158.746C300.256 159.258 300.306 159.754 300.352 160.234C300.397 160.713 300.432 161.152 300.456 161.55C300.481 161.964 300.351 162.284 300.065 162.509C299.787 162.734 299.367 162.863 298.803 162.897C298.546 162.912 298.339 162.862 298.183 162.747C298.035 162.64 297.954 162.47 297.94 162.238C297.871 161.094 297.778 160.027 297.66 159.036C297.55 158.036 297.438 157.149 297.325 156.374C297.22 155.599 297.123 154.956 297.034 154.445C296.953 153.926 296.907 153.571 296.895 153.381Z" fill="black"/>
<path d="M302.701 157.809C302.693 157.669 302.7 157.51 302.722 157.334C302.745 157.158 302.75 156.966 302.738 156.759C302.729 156.618 302.661 156.514 302.532 156.447C302.411 156.38 302.274 156.305 302.119 156.223C301.964 156.14 301.821 156.033 301.688 155.899C301.563 155.765 301.493 155.566 301.477 155.301C301.466 155.11 301.504 154.917 301.592 154.72C301.688 154.523 301.831 154.34 302.02 154.17C302.487 153.776 302.973 153.418 303.478 153.097C303.991 152.775 304.502 152.499 305.012 152.269C305.531 152.038 306.043 151.853 306.551 151.714C307.058 151.576 307.548 151.492 308.02 151.464C308.816 151.416 309.571 151.52 310.285 151.777C311.006 152.024 311.64 152.389 312.184 152.872C312.737 153.346 313.183 153.918 313.523 154.588C313.87 155.249 314.067 155.969 314.114 156.748C314.16 157.511 314.042 158.245 313.76 158.953C313.486 159.651 313.096 160.273 312.588 160.82C312.08 161.366 311.471 161.81 310.759 162.152C310.057 162.502 309.304 162.701 308.5 162.75C307.713 162.797 306.975 162.709 306.288 162.484C305.601 162.259 304.999 161.929 304.482 161.495C303.965 161.052 303.55 160.519 303.238 159.898C302.926 159.268 302.747 158.572 302.701 157.809ZM308.639 160.496C308.987 160.475 309.343 160.383 309.707 160.22C310.072 160.056 310.399 159.833 310.69 159.549C310.988 159.257 311.225 158.91 311.401 158.508C311.585 158.106 311.662 157.661 311.632 157.172C311.602 156.675 311.483 156.216 311.275 155.796C311.067 155.376 310.792 155.019 310.449 154.723C310.115 154.419 309.723 154.189 309.273 154.033C308.831 153.877 308.357 153.814 307.852 153.844C306.932 153.9 306.242 154.182 305.782 154.692C305.321 155.194 305.121 155.938 305.18 156.924C305.213 157.463 305.322 157.959 305.507 158.414C305.7 158.86 305.952 159.244 306.262 159.566C306.572 159.88 306.928 160.121 307.329 160.288C307.738 160.455 308.175 160.524 308.639 160.496Z" fill="black"/>
<path d="M315.621 151.106C315.614 150.982 315.66 150.858 315.761 150.736C315.861 150.605 315.996 150.489 316.164 150.387C316.332 150.277 316.522 150.187 316.734 150.116C316.954 150.036 317.176 149.989 317.399 149.976C317.524 149.969 317.629 149.995 317.716 150.057C317.811 150.118 317.898 150.241 317.975 150.428C318.053 150.606 318.126 150.864 318.197 151.201C318.275 151.528 318.355 151.96 318.437 152.496C318.48 152.66 318.517 152.786 318.547 152.876C318.585 152.957 318.629 152.996 318.679 152.993C318.753 152.988 318.82 152.855 318.879 152.594C319.379 150.809 320.201 149.882 321.344 149.813C321.875 149.782 322.365 149.918 322.816 150.224C323.275 150.529 323.714 151.047 324.132 151.779C324.558 152.502 324.978 153.466 325.392 154.672C325.805 155.87 326.235 157.353 326.683 159.123C326.705 159.213 326.722 159.295 326.735 159.369C326.748 159.443 326.756 159.514 326.76 159.58C326.771 159.77 326.736 159.939 326.653 160.085C326.578 160.223 326.473 160.341 326.338 160.441C326.202 160.532 326.048 160.604 325.877 160.656C325.706 160.716 325.533 160.752 325.359 160.762C325.011 160.783 324.756 160.761 324.594 160.696C324.44 160.63 324.337 160.495 324.283 160.29C323.967 159.045 323.663 157.941 323.372 156.977C323.09 156.012 322.816 155.206 322.553 154.556C322.297 153.898 322.051 153.401 321.814 153.066C321.578 152.731 321.352 152.57 321.137 152.583C320.921 152.596 320.726 152.745 320.552 153.03C320.386 153.306 320.233 153.735 320.093 154.317C319.954 154.9 319.827 155.635 319.715 156.523C319.61 157.411 319.52 158.469 319.444 159.696C319.422 160.03 319.273 160.305 318.995 160.521C318.717 160.738 318.354 160.859 317.906 160.886C317.608 160.904 317.376 160.856 317.211 160.741C317.047 160.626 316.949 160.461 316.92 160.247C316.741 158.528 316.573 157.116 316.415 156.011C316.265 154.897 316.132 154.007 316.017 153.34C315.902 152.665 315.809 152.163 315.74 151.835C315.67 151.506 315.63 151.263 315.621 151.106Z" fill="black"/>
<path d="M335.273 149.087C335.728 149.06 336.172 149.104 336.603 149.219C337.034 149.335 337.419 149.507 337.757 149.736C338.095 149.965 338.37 150.248 338.581 150.585C338.801 150.921 338.924 151.3 338.949 151.723C338.96 151.897 338.929 152.069 338.856 152.24C338.791 152.402 338.695 152.549 338.57 152.681C338.445 152.805 338.297 152.91 338.128 152.995C337.966 153.071 337.794 153.115 337.612 153.126C337.595 153.127 337.579 153.132 337.563 153.141C337.554 153.142 337.542 153.142 337.525 153.143C337.509 153.153 337.493 153.158 337.476 153.159L337.586 154.15C337.69 155.333 337.908 156.189 338.239 156.718C338.579 157.247 338.993 157.496 339.482 157.467C339.656 157.456 339.808 157.43 339.939 157.389C340.078 157.348 340.204 157.303 340.318 157.254C340.439 157.197 340.552 157.149 340.658 157.109C340.764 157.069 340.871 157.046 340.978 157.04C341.169 157.028 341.34 157.101 341.491 157.259C341.65 157.415 341.736 157.61 341.75 157.842C341.764 158.074 341.687 158.311 341.519 158.554C341.359 158.797 341.139 159.022 340.861 159.23C340.582 159.43 340.263 159.599 339.906 159.737C339.548 159.875 339.183 159.955 338.81 159.977C338.164 160.016 337.58 159.785 337.059 159.284C336.538 158.775 336.142 158.009 335.873 156.985C335.813 156.823 335.742 156.744 335.659 156.749C335.559 156.755 335.475 156.81 335.407 156.914C334.649 157.999 333.821 158.83 332.925 159.408C332.028 159.978 331.127 160.29 330.224 160.344C329.801 160.37 329.417 160.331 329.069 160.227C328.722 160.123 328.422 159.966 328.168 159.757C327.922 159.539 327.723 159.272 327.571 158.957C327.426 158.633 327.342 158.268 327.318 157.862C327.283 157.29 327.371 156.682 327.582 156.037C327.801 155.392 328.108 154.75 328.502 154.111C328.896 153.472 329.358 152.857 329.888 152.268C330.426 151.679 330.993 151.154 331.589 150.694C332.194 150.233 332.812 149.859 333.443 149.572C334.074 149.284 334.684 149.123 335.273 149.087ZM335.121 153.413C335.254 153.122 335.378 152.911 335.495 152.779C335.611 152.639 335.784 152.541 336.014 152.486C336.194 152.45 336.282 152.387 336.277 152.295C336.273 152.229 336.244 152.16 336.189 152.089C336.019 151.883 335.842 151.706 335.658 151.559C335.474 151.404 335.237 151.335 334.947 151.352C334.633 151.371 334.286 151.484 333.907 151.69C333.529 151.895 333.146 152.164 332.758 152.495C332.378 152.817 332.005 153.185 331.639 153.597C331.281 154.002 330.965 154.416 330.691 154.84C330.417 155.264 330.201 155.68 330.043 156.089C329.884 156.498 329.815 156.859 329.834 157.174C329.851 157.456 329.938 157.671 330.097 157.82C330.264 157.968 330.48 158.034 330.745 158.018C331.425 157.977 332.145 157.572 332.905 156.802C333.666 156.033 334.404 154.903 335.121 153.413Z" fill="black"/>
<path d="M340.743 145.452C340.717 145.021 340.822 144.707 341.06 144.51C341.298 144.313 341.702 144.197 342.274 144.162C342.473 144.15 342.648 144.161 342.8 144.193C342.952 144.226 343.08 144.289 343.186 144.382C343.291 144.467 343.377 144.591 343.445 144.753C343.521 144.907 343.587 145.106 343.643 145.352C343.795 146.083 343.95 146.852 344.106 147.657C344.271 148.454 344.427 149.252 344.575 150.049C344.73 150.838 344.877 151.611 345.014 152.368C345.15 153.117 345.271 153.817 345.377 154.467C345.49 155.109 345.579 155.682 345.643 156.185C345.714 156.68 345.758 157.072 345.776 157.362C345.794 157.661 345.78 157.915 345.734 158.126C345.697 158.336 345.616 158.507 345.491 158.64C345.374 158.771 345.214 158.872 345.01 158.943C344.814 159.005 344.567 159.044 344.269 159.062C343.979 159.08 343.742 159.019 343.559 158.881C343.385 158.741 343.288 158.518 343.27 158.212C343.251 157.897 343.201 157.48 343.119 156.961C343.038 156.434 342.936 155.849 342.814 155.208C342.692 154.566 342.556 153.884 342.404 153.162C342.261 152.438 342.11 151.724 341.951 151.018C341.8 150.312 341.651 149.635 341.504 148.987C341.365 148.33 341.239 147.751 341.125 147.251C341.011 146.742 340.92 146.327 340.851 146.007C340.781 145.679 340.745 145.494 340.743 145.452Z" fill="black"/>
<path d="M350.884 158.649C350.644 158.664 350.414 158.64 350.194 158.578C349.982 158.516 349.794 158.428 349.629 158.313C349.463 158.19 349.33 158.044 349.228 157.876C349.135 157.706 349.082 157.523 349.07 157.324C349.049 156.976 349.169 156.686 349.43 156.454C349.698 156.221 350.061 156.091 350.516 156.064C350.732 156.051 350.942 156.08 351.145 156.151C351.357 156.213 351.542 156.306 351.699 156.429C351.864 156.553 351.998 156.698 352.099 156.867C352.201 157.035 352.257 157.215 352.269 157.406C352.291 157.77 352.175 158.064 351.923 158.287C351.678 158.502 351.332 158.622 350.884 158.649Z" fill="black"/>
<path d="M358.889 158.167C358.649 158.182 358.419 158.158 358.199 158.097C357.987 158.034 357.799 157.946 357.634 157.831C357.468 157.708 357.335 157.562 357.233 157.394C357.14 157.225 357.087 157.041 357.075 156.842C357.054 156.494 357.174 156.204 357.435 155.972C357.703 155.739 358.066 155.61 358.521 155.582C358.737 155.569 358.947 155.598 359.15 155.669C359.362 155.731 359.547 155.824 359.704 155.948C359.869 156.071 360.003 156.217 360.104 156.385C360.206 156.554 360.262 156.733 360.274 156.924C360.296 157.288 360.18 157.582 359.928 157.805C359.683 158.02 359.337 158.14 358.889 158.167Z" fill="black"/>
<path d="M366.894 157.685C366.654 157.7 366.424 157.676 366.204 157.615C365.992 157.553 365.804 157.464 365.639 157.349C365.473 157.226 365.34 157.08 365.238 156.912C365.145 156.743 365.092 156.559 365.08 156.36C365.059 156.012 365.179 155.722 365.44 155.49C365.708 155.258 366.071 155.128 366.526 155.1C366.742 155.087 366.952 155.116 367.155 155.187C367.367 155.249 367.552 155.342 367.709 155.466C367.874 155.589 368.008 155.735 368.109 155.903C368.211 156.072 368.267 156.251 368.279 156.442C368.301 156.807 368.185 157.1 367.933 157.324C367.688 157.538 367.342 157.659 366.894 157.685Z" fill="black"/>
<path fill-rule="evenodd" clip-rule="evenodd" d="M352.303 1.33289C334.759 4.77661 317.673 16.1316 307.865 30.8645C298.244 45.3215 295.377 55.6382 296.028 73.4522C296.526 87.0586 297.214 90.0193 302.372 100.732C309.673 115.897 320.161 126.389 335.669 134.034C345.951 139.103 349.342 139.945 361.856 140.542C384.661 141.629 399.995 136.015 415.525 120.896C431.675 105.173 439.804 80.9671 436.126 59.5553C429.327 19.9669 391.441 -6.3473 352.303 1.33289ZM383.398 5.00609C413.473 13.0185 434.087 39.8766 434.087 71.0515C434.087 120.578 380.873 153.549 336.084 131.774C324.741 126.26 310.67 112.2 305 100.713C286.621 63.4885 306.771 17.6802 346.951 5.34629C356.509 2.41126 373.077 2.25721 383.398 5.00609ZM245.924 29.9017C244.978 31.6637 244.205 34.5794 244.205 36.3815C244.205 38.2254 242.268 40.8571 239.78 42.396C228.397 49.4359 224.964 54.7267 227.504 61.3253C228.823 64.753 236.501 68.6188 241.988 68.6188C244.395 68.6188 247.644 69.7726 249.207 71.1831C253.112 74.7071 256.029 72.5535 254.549 67.2403C253.899 64.9087 252.935 55.1166 252.407 45.4787C251.438 27.7947 249.524 23.1956 245.924 29.9017ZM183.092 31.6444C181.914 33.8381 181.916 37.062 183.094 42.3046C184.022 46.4367 185.228 56.5769 185.772 64.8348C186.636 77.9582 187.131 79.8518 189.706 79.8518C191.526 79.8518 193.047 78.2776 193.689 75.7293C194.601 72.101 192.163 41.8729 190.169 32.1114C189.262 27.6647 185.366 27.408 183.092 31.6444ZM359.187 31.829C358.599 32.7774 359.766 35.3016 361.781 37.4391C363.794 39.5766 364.907 41.8601 364.252 42.5116C363.599 43.1647 361.718 41.9194 360.075 39.7466C355.907 34.2376 344.986 34.1253 340.583 39.5477C335.654 45.6183 336.621 53.1557 343.169 59.6853C346.642 63.1483 348.801 66.8616 348.801 69.3681C348.801 72.0657 349.689 73.4329 351.438 73.4329C353.666 73.4329 353.925 72.1572 353.106 65.2617C352.269 58.2057 352.457 57.3552 354.491 59.0386C355.786 60.1105 356.847 63.3842 356.847 66.3128C356.847 69.243 357.571 72.0849 358.456 72.6305C359.341 73.1761 360.065 72.1347 360.065 70.3182C360.065 68.5016 360.789 67.014 361.674 67.014C362.559 67.014 363.284 68.4583 363.284 70.2235C363.284 72.8215 364.357 73.4329 368.916 73.4329C374.1 73.4329 374.548 73.051 374.548 68.622C374.548 65.2151 376.426 61.8228 380.984 56.9958C384.734 53.0273 387.421 51.1851 387.421 52.586C387.421 53.9067 385.249 57.0343 382.594 59.5328C376.725 65.0579 375.755 73.4329 380.984 73.4329C383.195 73.4329 384.203 72.3626 384.203 70.0165C384.203 68.1373 386.737 63.803 389.835 60.3833C397.052 52.4175 397.332 46.1607 390.763 39.6103C384.536 33.4 381.158 33.4722 381.338 39.8076C381.416 42.4971 380.643 45.5301 379.623 46.5475C378.22 47.9468 377.766 46.8122 377.766 41.9082C377.766 37.6573 376.751 34.5008 374.823 32.7613C371.539 29.7958 360.842 29.1587 359.187 31.829ZM261.888 38.5303C257.458 45.7756 257.748 53.3852 262.638 58.2603C267.417 63.0279 270.533 63.2253 274.739 59.0305C280.954 52.8331 280.972 43.5209 274.779 36.8935C270.047 31.8274 265.644 32.3874 261.888 38.5303ZM126.11 37.6364C124.279 43.529 129.345 82.989 132.312 85.9465C132.703 86.3365 135.474 86.1968 138.469 85.6368C145.303 84.3578 156.67 74.8194 157.687 69.5078C159.317 61.0108 151.158 53.865 138 52.2602C134.442 51.8254 133.884 50.8449 133.173 43.7601C132.592 37.975 131.625 35.6097 129.689 35.2438C128.202 34.963 126.611 36.0269 126.11 37.6364ZM205.759 43.0652C200.866 46.0388 200.553 46.6373 202.755 48.8326C204.663 50.7358 205.944 50.8882 208.511 49.5194C213.243 46.9936 218.459 47.3306 218.459 50.1645C218.459 51.782 216.835 52.5716 213.507 52.5716C207.767 52.5716 199.149 60.0977 199.149 65.1076C199.149 70.7675 204.32 74.951 213.398 76.6311C218.137 77.5105 222.663 77.8282 223.455 77.3404C224.247 76.8526 224.895 69.6361 224.895 61.3028C224.895 48.2918 224.442 45.7002 221.677 42.9432C217.567 38.8448 212.637 38.8833 205.759 43.0652ZM348.907 44.7935C346.243 47.2696 345.898 48.5566 347.234 51.0439C348.328 53.0835 348.354 54.1763 347.305 54.1763C345.042 54.1763 342.648 49.0316 343.571 46.1527C344.625 42.8678 348.943 39.6311 350.769 40.7576C351.59 41.2631 350.751 43.0797 348.907 44.7935ZM165.585 47.0305C157.846 56.8417 161.081 70.5123 171.378 71.5217C175.616 71.9373 176.847 71.2312 178.944 67.1889C182.878 59.6002 182.138 53.0129 176.744 47.6339C170.993 41.8986 169.688 41.828 165.585 47.0305ZM272.361 46.1382C273.669 50.2479 272.184 52.5716 268.248 52.5716C266.048 52.5716 265.124 51.4643 265.124 48.8278C265.124 42.3864 270.528 40.3789 272.361 46.1382ZM0.226777 50.081C-0.447464 51.8318 0.390911 53.6162 2.61961 55.1712C5.18301 56.9637 6.05517 59.2665 6.07287 64.2973C6.08574 67.9977 7.14136 73.9143 8.41582 77.4447C11.4282 85.7812 11.4764 93.4036 8.53489 95.8396C5.60943 98.2595 6.44781 119.942 10.1183 136.819C11.462 142.997 13.092 150.58 13.7422 153.669C14.8621 158.998 15.2564 159.279 21.4468 159.17C28.7734 159.038 41.1913 151.586 45.8193 144.541C49.7971 138.487 49.2806 130.485 44.5883 125.484C39.1573 119.692 35.7475 118.103 26.2776 116.951L18.1175 115.958L17.6412 106.964C17.2115 98.8372 17.5623 97.7107 21.265 95.2908C23.5194 93.8177 27.309 89.6823 29.6858 86.1022L34.0048 79.5918L36.9367 85.2886C38.5474 88.4226 41.4085 91.8085 43.2929 92.8147C47.356 94.9827 57.534 93.6716 59.399 90.7398C61.8788 86.8419 60.7475 85.9914 54.4894 87.0457C45.6889 88.5285 45.0259 85.8213 52.6824 79.6849C60.1424 73.7057 60.7475 70.0646 55.2007 64.5347C49.9757 59.3226 41.6966 59.2199 36.9029 64.3085C34.9783 66.3513 33.4046 68.9622 33.4046 70.1095C33.4046 71.687 32.4342 71.5634 29.438 69.6057C27.2575 68.1807 24.361 67.014 23.0013 67.014C19.3775 67.014 19.9407 65.3676 25.5293 59.6163L30.529 54.4732L26.0957 51.5782C23.4197 49.8291 17.6235 48.425 11.4636 48.0334C3.01223 47.4974 1.08446 47.8489 0.226777 50.081ZM244.205 54.9786C244.205 62.8723 243.476 63.4387 238.127 59.7013C233.585 56.5288 233.585 53.4285 238.127 50.256C243.476 46.5186 244.205 47.085 244.205 54.9786ZM174.38 56.7005C175.574 61.4473 173.17 64.6744 169.487 63.2654C166.499 62.1229 166.169 57.2172 168.896 54.4972C171.819 51.583 173.235 52.1527 174.38 56.7005ZM18.1175 57.4981C18.1175 58.7353 16.8511 59.9918 15.3014 60.2903C12.5272 60.823 11.3815 57.4178 13.5925 55.2129C15.2789 53.5312 18.1175 54.9642 18.1175 57.4981ZM79.7823 57.5141C78.4033 58.2844 76.3709 61.0894 75.267 63.7468C73.1461 68.8531 70.4154 68.8851 70.4154 63.8046C70.4154 60.0399 68.325 58.6599 64.7157 60.0399C62.3068 60.9627 62.059 62.7728 62.8233 73.8919C63.7888 87.938 66.6 93.3041 71.0574 89.6149C72.3834 88.5173 74.3176 84.9692 75.3555 81.7293C77.8175 74.0411 80.0639 71.6661 80.0929 76.7226C80.1363 84.4782 81.9177 88.0695 85.4659 87.5576C88.6424 87.1003 89.5564 85.38 95.4958 68.6637C97.2933 63.6056 99.3305 71.0531 99.3562 82.7724C99.3787 93.9669 99.5461 94.4932 102.935 94.0054C107.944 93.2817 109.695 83.7609 107.363 69.9105C105.186 56.9717 102.772 54.2469 96.8878 58.0918C94.6237 59.5714 92.3708 61.8228 91.88 63.0953C90.5444 66.5679 88.5861 65.8875 87.4999 61.574C86.3783 57.1193 83.3482 55.5242 79.7823 57.5141ZM145.687 61.489C147.684 62.8835 149.265 65.6773 149.265 67.8164C149.265 71.5955 144.035 76.6423 140.118 76.6423C137.818 76.6423 134.145 64.5668 135.429 61.229C136.568 58.2683 141.248 58.3871 145.687 61.489ZM218.158 64.2058C217.747 68.4615 216.888 69.5094 213.493 69.9041C211.079 70.1833 208.4 69.2639 207.109 67.7137C205.172 65.3869 205.37 64.6503 208.631 62.0153C210.693 60.3512 213.792 58.9904 215.52 58.9904C218.097 58.9904 218.571 59.9308 218.158 64.2058ZM50.5309 69.442C51.7426 72.5904 48.3328 76.6423 44.4724 76.6423C42.3789 76.6423 41.4504 75.4918 41.4504 72.8986C41.4504 70.8381 41.9331 68.6717 42.5237 68.0844C44.4917 66.1202 49.5847 66.9835 50.5309 69.442ZM25.1495 76.2123C26.255 78.1829 25.9429 80.285 24.0778 83.4335C20.0099 90.3001 18.3556 89.4304 16.4745 79.4378C15.4092 73.7699 15.5766 73.4329 19.4676 73.4329C21.7349 73.4329 24.2918 74.683 25.1495 76.2123ZM349.104 79.3944C349.599 81.9267 351.625 82.2589 366.531 82.2589C380.452 82.2589 383.398 81.8384 383.398 79.8518C383.398 77.8892 380.185 77.3613 365.971 76.9874C349.974 76.5685 348.59 76.7659 349.104 79.3944ZM234.467 88.7788C232.743 90.8489 232.845 92.6029 235.043 98.8083C236.509 102.945 238.741 112.384 240.005 119.785C242.659 135.32 245.748 139.063 251.332 133.496C254.161 130.673 254.721 123.9 252.251 122.377C251.366 121.831 250.642 118.315 250.642 114.563C250.642 108.793 251.768 106.428 257.948 99.2063C261.967 94.5125 264.988 89.862 264.661 88.8719C263.436 85.157 256.757 85.977 252.116 90.4124L247.499 94.8222L244.126 90.5472C240.285 85.6769 237.476 85.1618 234.467 88.7788ZM372.536 88.0038C370.988 88.904 369.743 90.8682 369.772 92.3686C369.817 94.7821 370.092 94.742 372.16 92.0172C374.424 89.0324 374.598 89.0276 377.74 91.8647C381.536 95.2892 382.183 92.5098 378.456 88.7917C377.064 87.4052 375.798 86.2931 375.64 86.3188C375.481 86.3461 374.084 87.1035 372.536 88.0038ZM353.093 88.9457C352.502 89.5331 352.042 91.1586 352.071 92.5564C352.113 94.6377 352.544 94.5398 354.459 92.0172C356.763 88.9794 356.845 88.9794 360.313 92.0172C363.618 94.9121 363.765 94.9201 362.753 92.1568C362.159 90.5408 361.674 88.9152 361.674 88.5462C361.674 87.4437 354.253 87.7887 353.093 88.9457ZM180.719 92.5676C180.214 93.3844 181.618 97.4636 183.842 101.633C186.066 105.803 187.884 111.344 187.884 113.949C187.884 119.684 183.665 129.022 180.532 130.221C177.121 131.527 173.18 122.561 172.206 111.285C171.201 99.6428 169.534 95.899 165.356 95.899C160.466 95.899 158.934 100.7 160.44 111.32C163.811 135.11 174.898 145.286 187.057 135.747C193.185 130.941 195.932 123.462 195.924 111.596C195.917 99.317 191.769 91.0848 185.59 91.0848C183.416 91.0848 181.224 91.7524 180.719 92.5676ZM203.852 97.3801C200.533 100.692 199.152 103.642 199.158 107.41C199.173 116.319 202.322 124.782 207.87 130.819C212.511 135.869 214.059 136.551 220.877 136.551C227.036 136.551 229.234 135.791 231.647 132.819C235.834 127.661 233.239 125.512 225.785 127.964C221.131 129.497 219.434 129.466 217.435 127.812C215.242 125.997 216.095 124.704 224.239 117.499L233.549 109.26L231.363 103.995C226.657 92.6687 212.09 89.1656 203.852 97.3801ZM138.805 96.5601C126.664 101.941 122.519 114.485 130.191 122.627C133.929 126.596 137.918 126.998 144.703 124.089C146.955 123.123 147.81 124.859 150.063 134.955C151.537 141.563 152.504 148.651 152.211 150.705C151.495 155.72 146.621 156.371 142.023 152.064C135.493 145.947 128.788 149.949 134.327 156.657C140.467 164.093 155.74 163.676 159.257 155.976C160.694 152.831 160.339 148.011 157.568 133.127C154.819 118.367 154.38 112.532 155.55 106.29C156.544 100.976 156.485 97.6433 155.371 96.305C153.209 93.7069 144.955 93.8337 138.805 96.5601ZM354.432 100.715C353.77 101.782 351.434 102.092 348.648 101.482C344.691 100.615 343.974 100.955 343.974 103.704C343.974 107.568 349.686 111.946 354.729 111.946C358.979 111.946 365.192 105.871 364.526 102.364C363.972 99.447 356.023 98.1488 354.432 100.715ZM368.694 101.515C365.163 110.69 382.763 115.812 387.498 106.988C389.767 102.759 388.177 97.7123 385.437 100.445C383.141 102.735 377.766 102.923 377.766 100.713C377.766 98.1488 369.714 98.8613 368.694 101.515ZM221.677 105.409C221.677 109.621 218.061 113.447 213.631 113.922C210.159 114.294 209.539 113.638 209.103 109.123C208.696 104.903 209.304 103.635 212.262 102.544C217.197 100.723 221.677 102.085 221.677 105.409ZM72.0245 104.789C72.0245 106.148 73.4728 110.091 75.2429 113.551C77.0129 117.011 78.458 122.579 78.4548 125.923C78.4483 132.692 73.011 143.017 69.9648 142.046C67.0667 141.123 62.5208 126.697 62.4403 118.16C62.3599 109.751 59.5519 106.28 54.1998 107.973C50.9429 109.005 50.7546 109.863 51.4481 120.543C52.4056 135.293 57.0931 146.106 64.0962 149.718C68.8834 152.186 69.7669 152.202 74.6185 149.895C77.5295 148.51 81.1372 145.514 82.6338 143.237C89.0962 133.4 88.9143 112.596 82.3071 106.007C78.0782 101.791 72.0245 101.073 72.0245 104.789ZM90.2226 104.946C89.6658 106.392 90.4591 111.267 91.9862 115.778C93.5117 120.291 95.6584 129.343 96.7558 135.897C98.9185 148.819 101.881 152.729 107.024 149.45C109.908 147.613 110.033 145.536 108.123 131.148C107.209 124.266 107.563 123.383 114.672 114.77C118.805 109.765 121.719 104.914 121.148 103.993C119.086 100.667 111.649 102.22 108.038 106.731L104.506 111.144L101.022 106.731C97.1388 101.812 91.769 100.927 90.2226 104.946ZM145.465 104.728C146.648 107.803 145.232 113.461 142.268 117.502C140.303 120.182 139.571 120.331 137.37 118.509C135.947 117.332 134.782 114.527 134.782 112.277C134.782 104.967 143.254 98.9816 145.465 104.728ZM34.6211 128.918C40.361 132.668 39.0672 140.433 31.9048 145.23C28.8683 147.263 25.6323 148.678 24.7151 148.373C22.3641 147.592 18.1786 130.635 19.4933 127.22C20.3446 125.005 21.6914 124.614 25.7015 125.415C28.5175 125.976 32.5324 127.552 34.6211 128.918Z" fill="#D42929"/>
<path fill-rule="evenodd" clip-rule="evenodd" d="M89.675 158.433C138.2 148.039 218.203 138.702 344.962 135.5L345.038 138.5C218.365 141.698 138.57 151.028 90.3034 161.367C66.163 166.538 49.9735 171.948 39.7679 176.935C34.6627 179.43 31.1137 181.79 28.8213 183.917C26.5071 186.064 25.6184 187.834 25.4932 189.143L22.5068 188.857C22.7324 186.499 24.2183 184.095 26.7811 181.717C29.3657 179.32 33.1959 176.808 38.4508 174.24C48.9656 169.102 65.4198 163.629 89.675 158.433Z" fill="#D42929"/>
</svg>
