<svg width="142" height="141" viewBox="0 0 142 141" fill="none" xmlns="http://www.w3.org/2000/svg">
<path fill-rule="evenodd" clip-rule="evenodd" d="M56.3622 1.33289C38.8191 4.77661 21.733 16.1316 11.9251 30.8645C2.30393 45.3215 -0.563613 55.6382 0.0880989 73.4522C0.585331 87.0586 1.27408 90.0193 6.43145 100.732C13.7322 115.897 24.2208 126.389 39.7283 134.034C50.0109 139.103 53.4014 139.945 65.9159 140.542C88.721 141.629 104.055 136.015 119.585 120.896C135.734 105.173 143.864 80.9671 140.185 59.5553C133.387 19.9669 95.5004 -6.3473 56.3622 1.33289ZM87.4578 5.00609C117.533 13.0185 138.146 39.8766 138.146 71.0515C138.146 120.578 84.933 153.549 40.1435 131.774C28.8005 126.26 14.7299 112.2 9.0592 100.713C-9.31908 63.4885 10.8309 17.6802 51.0102 5.34629C60.5686 2.41126 77.1366 2.25721 87.4578 5.00609ZM63.2463 31.829C62.6589 32.7774 63.8256 35.3016 65.8403 37.4391C67.8533 39.5766 68.9668 41.8601 68.3119 42.5116C67.6586 43.1647 65.7775 41.9194 64.1346 39.7466C59.9668 34.2376 49.0454 34.1253 44.6427 39.5477C39.7138 45.6183 40.6809 53.1557 47.2286 59.6853C50.7012 63.1483 52.8607 66.8616 52.8607 69.3681C52.8607 72.0657 53.749 73.4329 55.4981 73.4329C57.7252 73.4329 57.9843 72.1572 57.1652 65.2617C56.3285 58.2057 56.5168 57.3552 58.5508 59.0386C59.8461 60.1105 60.9065 63.3842 60.9065 66.3128C60.9065 69.243 61.6307 72.0849 62.5157 72.6305C63.4008 73.1761 64.1249 72.1347 64.1249 70.3182C64.1249 68.5016 64.849 67.014 65.734 67.014C66.6191 67.014 67.3432 68.4583 67.3432 70.2235C67.3432 72.8215 68.4165 73.4329 72.9753 73.4329C78.16 73.4329 78.6074 73.051 78.6074 68.622C78.6074 65.2151 80.4853 61.8228 85.044 56.9958C88.7934 53.0273 91.4807 51.1851 91.4807 52.586C91.4807 53.9067 89.3083 57.0343 86.6532 59.5328C80.7846 65.0579 79.8143 73.4329 85.044 73.4329C87.255 73.4329 88.2624 72.3626 88.2624 70.0165C88.2624 68.1373 90.7968 63.803 93.8944 60.3833C101.112 52.4175 101.392 46.1607 94.8229 39.6103C88.5954 33.4 85.2178 33.4722 85.398 39.8076C85.4753 42.4971 84.7029 45.5301 83.6827 46.5475C82.2795 47.9468 81.8257 46.8122 81.8257 41.9082C81.8257 37.6573 80.8103 34.5008 78.8825 32.7613C75.5982 29.7958 64.9021 29.1587 63.2463 31.829ZM52.9669 44.7935C50.3021 47.2696 49.9578 48.5566 51.2934 51.0439C52.3876 53.0835 52.4134 54.1763 51.3642 54.1763C49.1017 54.1763 46.7073 49.0316 47.6309 46.1527C48.6849 42.8678 53.0023 39.6311 54.8287 40.7576C55.6494 41.2631 54.811 43.0797 52.9669 44.7935ZM53.1632 79.3944C53.6588 81.9267 55.6848 82.2589 70.5905 82.2589C84.5114 82.2589 87.4578 81.8384 87.4578 79.8518C87.4578 77.8892 84.2443 77.3613 70.0305 76.9874C54.0338 76.5685 52.6499 76.7659 53.1632 79.3944ZM76.5959 88.0038C75.0479 88.904 73.8024 90.8682 73.8314 92.3686C73.8764 94.7821 74.1516 94.742 76.2194 92.0172C78.4835 89.0324 78.6573 89.0276 81.8 91.8647C85.596 95.2892 86.2428 92.5098 82.516 88.7917C81.1241 87.4052 79.8577 86.2931 79.7 86.3188C79.5406 86.3461 78.1439 87.1035 76.5959 88.0038ZM57.1523 88.9457C56.5618 89.5331 56.1016 91.1586 56.1306 92.5564C56.1724 94.6377 56.6036 94.5398 58.5185 92.0172C60.8228 88.9794 60.9049 88.9794 64.3727 92.0172C67.6779 94.9121 67.8244 94.9201 66.8122 92.1568C66.2184 90.5408 65.734 88.9152 65.734 88.5462C65.734 87.4437 58.3126 87.7887 57.1523 88.9457ZM58.4912 100.715C57.8298 101.782 55.4933 102.092 52.7078 101.482C48.7509 100.615 48.0332 100.955 48.0332 103.704C48.0332 107.568 53.7457 111.946 58.7888 111.946C63.0387 111.946 69.2517 105.871 68.5855 102.364C68.0319 99.447 60.0826 98.1488 58.4912 100.715ZM72.7532 101.515C69.2227 110.69 86.8222 115.812 91.5579 106.988C93.8269 102.759 92.237 97.7123 89.4966 100.445C87.2003 102.735 81.8257 102.923 81.8257 100.713C81.8257 98.1488 73.7734 98.8613 72.7532 101.515Z" fill="#FFF"/>
</svg>
